<svg id="visual" viewBox="0 0 960 540" width="960" height="540" xmlns="http://www.w3.org/2000/svg" xmlns:xlink="http://www.w3.org/1999/xlink" version="1.1"><rect x="0" y="0" width="960" height="540" fill="#eae2b7"></rect><path d="M0 220L46 143L91 185L137 178L183 211L229 197L274 212L320 155L366 220L411 119L457 237L503 118L549 120L594 231L640 162L686 229L731 242L777 147L823 196L869 214L914 107L960 117L960 541L914 541L869 541L823 541L777 541L731 541L686 541L640 541L594 541L549 541L503 541L457 541L411 541L366 541L320 541L274 541L229 541L183 541L137 541L91 541L46 541L0 541Z" fill="#d62828"></path><path d="M0 169L46 219L91 166L137 151L183 249L229 163L274 249L320 210L366 242L411 254L457 166L503 253L549 262L594 245L640 200L686 171L731 163L777 204L823 184L869 176L914 264L960 170L960 541L914 541L869 541L823 541L777 541L731 541L686 541L640 541L594 541L549 541L503 541L457 541L411 541L366 541L320 541L274 541L229 541L183 541L137 541L91 541L46 541L0 541Z" fill="#e25326"></path><path d="M0 182L46 290L91 182L137 277L183 254L229 181L274 265L320 202L366 209L411 288L457 193L503 252L549 296L594 185L640 210L686 241L731 192L777 235L823 242L869 214L914 239L960 213L960 541L914 541L869 541L823 541L777 541L731 541L686 541L640 541L594 541L549 541L503 541L457 541L411 541L366 541L320 541L274 541L229 541L183 541L137 541L91 541L46 541L0 541Z" fill="#ec7628"></path><path d="M0 225L46 304L91 278L137 305L183 288L229 257L274 292L320 296L366 260L411 224L457 260L503 223L549 233L594 270L640 277L686 228L731 264L777 220L823 294L869 210L914 290L960 229L960 541L914 541L869 541L823 541L777 541L731 541L686 541L640 541L594 541L549 541L503 541L457 541L411 541L366 541L320 541L274 541L229 541L183 541L137 541L91 541L46 541L0 541Z" fill="#f49531"></path><path d="M0 341L46 274L91 311L137 283L183 305L229 308L274 331L320 328L366 306L411 251L457 335L503 309L549 253L594 305L640 263L686 314L731 268L777 300L823 305L869 250L914 284L960 275L960 541L914 541L869 541L823 541L777 541L731 541L686 541L640 541L594 541L549 541L503 541L457 541L411 541L366 541L320 541L274 541L229 541L183 541L137 541L91 541L46 541L0 541Z" fill="#fab341"></path><path d="M0 315L46 363L91 334L137 359L183 324L229 320L274 337L320 357L366 280L411 340L457 312L503 334L549 310L594 346L640 342L686 300L731 281L777 291L823 301L869 292L914 323L960 361L960 541L914 541L869 541L823 541L777 541L731 541L686 541L640 541L594 541L549 541L503 541L457 541L411 541L366 541L320 541L274 541L229 541L183 541L137 541L91 541L46 541L0 541Z" fill="#fcbf49"></path><path d="M0 330L46 374L91 338L137 317L183 372L229 327L274 383L320 347L366 321L411 315L457 319L503 329L549 318L594 380L640 346L686 323L731 334L777 311L823 365L869 325L914 327L960 352L960 541L914 541L869 541L823 541L777 541L731 541L686 541L640 541L594 541L549 541L503 541L457 541L411 541L366 541L320 541L274 541L229 541L183 541L137 541L91 541L46 541L0 541Z" fill="#fcbf49"></path><path d="M0 378L46 354L91 358L137 354L183 395L229 364L274 411L320 374L366 384L411 364L457 416L503 412L549 357L594 346L640 351L686 409L731 387L777 346L823 361L869 395L914 361L960 388L960 541L914 541L869 541L823 541L777 541L731 541L686 541L640 541L594 541L549 541L503 541L457 541L411 541L366 541L320 541L274 541L229 541L183 541L137 541L91 541L46 541L0 541Z" fill="#fab341"></path><path d="M0 413L46 441L91 425L137 423L183 420L229 403L274 418L320 412L366 401L411 386L457 389L503 385L549 387L594 390L640 439L686 383L731 413L777 399L823 428L869 390L914 416L960 415L960 541L914 541L869 541L823 541L777 541L731 541L686 541L640 541L594 541L549 541L503 541L457 541L411 541L366 541L320 541L274 541L229 541L183 541L137 541L91 541L46 541L0 541Z" fill="#f49531"></path><path d="M0 446L46 446L91 449L137 430L183 431L229 434L274 457L320 423L366 430L411 460L457 422L503 422L549 417L594 437L640 432L686 464L731 436L777 416L823 447L869 453L914 437L960 439L960 541L914 541L869 541L823 541L777 541L731 541L686 541L640 541L594 541L549 541L503 541L457 541L411 541L366 541L320 541L274 541L229 541L183 541L137 541L91 541L46 541L0 541Z" fill="#ec7628"></path><path d="M0 478L46 485L91 450L137 458L183 486L229 485L274 451L320 447L366 474L411 456L457 485L503 487L549 478L594 467L640 490L686 475L731 462L777 453L823 484L869 454L914 489L960 467L960 541L914 541L869 541L823 541L777 541L731 541L686 541L640 541L594 541L549 541L503 541L457 541L411 541L366 541L320 541L274 541L229 541L183 541L137 541L91 541L46 541L0 541Z" fill="#e25326"></path><path d="M0 503L46 492L91 513L137 503L183 501L229 498L274 503L320 498L366 492L411 513L457 505L503 510L549 503L594 496L640 506L686 505L731 485L777 507L823 484L869 498L914 494L960 491L960 541L914 541L869 541L823 541L777 541L731 541L686 541L640 541L594 541L549 541L503 541L457 541L411 541L366 541L320 541L274 541L229 541L183 541L137 541L91 541L46 541L0 541Z" fill="#d62828"></path></svg>