<svg id="visual" viewBox="0 0 900 600" width="900" height="600" xmlns="http://www.w3.org/2000/svg" xmlns:xlink="http://www.w3.org/1999/xlink" version="1.1"><path d="M0 31L39 31L39 13L78 13L78 67L117 67L117 55L157 55L157 31L196 31L196 49L235 49L235 19L274 19L274 19L313 19L313 61L352 61L352 43L391 43L391 19L430 19L430 13L470 13L470 73L509 73L509 43L548 43L548 43L587 43L587 67L626 67L626 49L665 49L665 61L704 61L704 19L743 19L743 49L783 49L783 19L822 19L822 61L861 61L861 67L900 67L900 73L900 0L900 0L861 0L861 0L822 0L822 0L783 0L783 0L743 0L743 0L704 0L704 0L665 0L665 0L626 0L626 0L587 0L587 0L548 0L548 0L509 0L509 0L470 0L470 0L430 0L430 0L391 0L391 0L352 0L352 0L313 0L313 0L274 0L274 0L235 0L235 0L196 0L196 0L157 0L157 0L117 0L117 0L78 0L78 0L39 0L39 0L0 0Z" fill="#eae2b7"></path><path d="M0 199L39 199L39 97L78 97L78 151L117 151L117 199L157 199L157 97L196 97L196 133L235 133L235 163L274 163L274 337L313 337L313 223L352 223L352 121L391 121L391 115L430 115L430 121L470 121L470 133L509 133L509 127L548 127L548 247L587 247L587 169L626 169L626 211L665 211L665 211L704 211L704 265L743 265L743 241L783 241L783 133L822 133L822 331L861 331L861 163L900 163L900 181L900 71L900 65L861 65L861 59L822 59L822 17L783 17L783 47L743 47L743 17L704 17L704 59L665 59L665 47L626 47L626 65L587 65L587 41L548 41L548 41L509 41L509 71L470 71L470 11L430 11L430 17L391 17L391 41L352 41L352 59L313 59L313 17L274 17L274 17L235 17L235 47L196 47L196 29L157 29L157 53L117 53L117 65L78 65L78 11L39 11L39 29L0 29Z" fill="#e8d79d"></path><path d="M0 247L39 247L39 175L78 175L78 283L117 283L117 247L157 247L157 133L196 133L196 223L235 223L235 199L274 199L274 397L313 397L313 319L352 319L352 229L391 229L391 247L430 247L430 175L470 175L470 217L509 217L509 169L548 169L548 397L587 397L587 229L626 229L626 301L665 301L665 271L704 271L704 319L743 319L743 313L783 313L783 223L822 223L822 397L861 397L861 187L900 187L900 271L900 179L900 161L861 161L861 329L822 329L822 131L783 131L783 239L743 239L743 263L704 263L704 209L665 209L665 209L626 209L626 167L587 167L587 245L548 245L548 125L509 125L509 131L470 131L470 119L430 119L430 113L391 113L391 119L352 119L352 221L313 221L313 335L274 335L274 161L235 161L235 131L196 131L196 95L157 95L157 197L117 197L117 149L78 149L78 95L39 95L39 197L0 197Z" fill="#e8cb83"></path><path d="M0 301L39 301L39 211L78 211L78 337L117 337L117 307L157 307L157 169L196 169L196 289L235 289L235 217L274 217L274 427L313 427L313 367L352 367L352 289L391 289L391 283L430 283L430 241L470 241L470 235L509 235L509 181L548 181L548 433L587 433L587 295L626 295L626 313L665 313L665 301L704 301L704 361L743 361L743 373L783 373L783 271L822 271L822 421L861 421L861 229L900 229L900 289L900 269L900 185L861 185L861 395L822 395L822 221L783 221L783 311L743 311L743 317L704 317L704 269L665 269L665 299L626 299L626 227L587 227L587 395L548 395L548 167L509 167L509 215L470 215L470 173L430 173L430 245L391 245L391 227L352 227L352 317L313 317L313 395L274 395L274 197L235 197L235 221L196 221L196 131L157 131L157 245L117 245L117 281L78 281L78 173L39 173L39 245L0 245Z" fill="#e9bf6a"></path><path d="M0 337L39 337L39 265L78 265L78 403L117 403L117 367L157 367L157 205L196 205L196 361L235 361L235 271L274 271L274 439L313 439L313 403L352 403L352 361L391 361L391 355L430 355L430 313L470 313L470 265L509 265L509 265L548 265L548 451L587 451L587 355L626 355L626 361L665 361L665 325L704 325L704 427L743 427L743 439L783 439L783 337L822 337L822 439L861 439L861 301L900 301L900 337L900 287L900 227L861 227L861 419L822 419L822 269L783 269L783 371L743 371L743 359L704 359L704 299L665 299L665 311L626 311L626 293L587 293L587 431L548 431L548 179L509 179L509 233L470 233L470 239L430 239L430 281L391 281L391 287L352 287L352 365L313 365L313 425L274 425L274 215L235 215L235 287L196 287L196 167L157 167L157 305L117 305L117 335L78 335L78 209L39 209L39 299L0 299Z" fill="#ebb152"></path><path d="M0 379L39 379L39 331L78 331L78 415L117 415L117 415L157 415L157 271L196 271L196 415L235 415L235 313L274 313L274 457L313 457L313 421L352 421L352 373L391 373L391 409L430 409L430 331L470 331L470 313L509 313L509 319L548 319L548 511L587 511L587 421L626 421L626 439L665 439L665 397L704 397L704 493L743 493L743 499L783 499L783 385L822 385L822 487L861 487L861 337L900 337L900 409L900 335L900 299L861 299L861 437L822 437L822 335L783 335L783 437L743 437L743 425L704 425L704 323L665 323L665 359L626 359L626 353L587 353L587 449L548 449L548 263L509 263L509 263L470 263L470 311L430 311L430 353L391 353L391 359L352 359L352 401L313 401L313 437L274 437L274 269L235 269L235 359L196 359L196 203L157 203L157 365L117 365L117 401L78 401L78 263L39 263L39 335L0 335Z" fill="#efa23a"></path><path d="M0 511L39 511L39 559L78 559L78 541L117 541L117 541L157 541L157 571L196 571L196 541L235 541L235 517L274 517L274 547L313 547L313 547L352 547L352 493L391 493L391 523L430 523L430 511L470 511L470 493L509 493L509 571L548 571L548 541L587 541L587 511L626 511L626 565L665 565L665 505L704 505L704 535L743 535L743 583L783 583L783 565L822 565L822 529L861 529L861 541L900 541L900 523L900 407L900 335L861 335L861 485L822 485L822 383L783 383L783 497L743 497L743 491L704 491L704 395L665 395L665 437L626 437L626 419L587 419L587 509L548 509L548 317L509 317L509 311L470 311L470 329L430 329L430 407L391 407L391 371L352 371L352 419L313 419L313 455L274 455L274 311L235 311L235 413L196 413L196 269L157 269L157 413L117 413L117 413L78 413L78 329L39 329L39 377L0 377Z" fill="#f39221"></path><path d="M0 601L39 601L39 601L78 601L78 601L117 601L117 601L157 601L157 601L196 601L196 601L235 601L235 601L274 601L274 601L313 601L313 601L352 601L352 601L391 601L391 601L430 601L430 601L470 601L470 601L509 601L509 601L548 601L548 601L587 601L587 601L626 601L626 601L665 601L665 601L704 601L704 601L743 601L743 601L783 601L783 601L822 601L822 601L861 601L861 601L900 601L900 601L900 521L900 539L861 539L861 527L822 527L822 563L783 563L783 581L743 581L743 533L704 533L704 503L665 503L665 563L626 563L626 509L587 509L587 539L548 539L548 569L509 569L509 491L470 491L470 509L430 509L430 521L391 521L391 491L352 491L352 545L313 545L313 545L274 545L274 515L235 515L235 539L196 539L196 569L157 569L157 539L117 539L117 539L78 539L78 557L39 557L39 509L0 509Z" fill="#f77f00"></path></svg>