<svg xmlns="http://www.w3.org/2000/svg" width="375" viewBox="0 0 375 375" height="375" version="1.0"><defs><clipPath id="a"><path d="M 37.5 40.074219 L 332.25 40.074219 L 332.25 334.824219 L 37.5 334.824219 Z M 37.5 40.074219"/></clipPath></defs><g clip-path="url(#a)"><path d="M 119.375 40.074219 C 74.230469 40.074219 37.5 76.800781 37.5 121.949219 L 37.5 252.949219 C 37.5 298.09375 74.230469 334.824219 119.375 334.824219 L 250.375 334.824219 C 295.519531 334.824219 332.25 298.09375 332.25 252.949219 L 332.25 121.949219 C 332.25 76.800781 295.519531 40.074219 250.375 40.074219 Z M 119.375 72.824219 L 250.375 72.824219 C 277.460938 72.824219 299.5 94.863281 299.5 121.949219 L 299.5 252.949219 C 299.5 280.03125 277.460938 302.074219 250.375 302.074219 L 119.375 302.074219 C 92.289062 302.074219 70.25 280.03125 70.25 252.949219 L 70.25 121.949219 C 70.25 94.863281 92.289062 72.824219 119.375 72.824219 Z M 266.75 89.199219 C 266.214844 89.199219 265.679688 89.226562 265.144531 89.277344 C 264.609375 89.328125 264.082031 89.410156 263.554688 89.511719 C 263.03125 89.617188 262.511719 89.746094 261.996094 89.902344 C 261.484375 90.058594 260.980469 90.238281 260.484375 90.445312 C 259.988281 90.648438 259.503906 90.878906 259.03125 91.132812 C 258.558594 91.386719 258.097656 91.660156 257.652344 91.957031 C 257.207031 92.257812 256.777344 92.574219 256.363281 92.914062 C 255.945312 93.253906 255.550781 93.617188 255.171875 93.996094 C 254.792969 94.375 254.433594 94.769531 254.09375 95.183594 C 253.75 95.601562 253.433594 96.03125 253.132812 96.476562 C 252.835938 96.921875 252.5625 97.382812 252.308594 97.855469 C 252.054688 98.328125 251.828125 98.8125 251.621094 99.308594 C 251.417969 99.800781 251.234375 100.308594 251.082031 100.820312 C 250.925781 101.332031 250.792969 101.851562 250.691406 102.378906 C 250.585938 102.90625 250.507812 103.433594 250.453125 103.96875 C 250.402344 104.503906 250.375 105.039062 250.375 105.574219 C 250.375 106.109375 250.402344 106.644531 250.453125 107.179688 C 250.507812 107.710938 250.585938 108.242188 250.691406 108.769531 C 250.792969 109.292969 250.925781 109.8125 251.082031 110.328125 C 251.234375 110.839844 251.417969 111.34375 251.621094 111.839844 C 251.828125 112.335938 252.054688 112.820312 252.308594 113.292969 C 252.5625 113.765625 252.835938 114.226562 253.132812 114.671875 C 253.433594 115.117188 253.75 115.546875 254.09375 115.960938 C 254.433594 116.375 254.792969 116.773438 255.171875 117.152344 C 255.550781 117.53125 255.945312 117.890625 256.363281 118.230469 C 256.777344 118.570312 257.207031 118.890625 257.652344 119.1875 C 258.097656 119.488281 258.558594 119.761719 259.03125 120.015625 C 259.503906 120.269531 259.988281 120.496094 260.484375 120.703125 C 260.980469 120.90625 261.484375 121.085938 261.996094 121.242188 C 262.507812 121.398438 263.03125 121.527344 263.554688 121.632812 C 264.082031 121.738281 264.609375 121.816406 265.144531 121.871094 C 265.679688 121.921875 266.214844 121.949219 266.75 121.949219 C 267.285156 121.949219 267.820312 121.921875 268.355469 121.871094 C 268.890625 121.816406 269.417969 121.738281 269.945312 121.632812 C 270.46875 121.527344 270.988281 121.398438 271.503906 121.242188 C 272.015625 121.085938 272.519531 120.90625 273.015625 120.703125 C 273.511719 120.496094 273.996094 120.269531 274.46875 120.015625 C 274.941406 119.761719 275.402344 119.488281 275.847656 119.1875 C 276.292969 118.890625 276.722656 118.570312 277.136719 118.230469 C 277.550781 117.890625 277.949219 117.53125 278.328125 117.152344 C 278.707031 116.773438 279.066406 116.375 279.40625 115.960938 C 279.75 115.546875 280.066406 115.117188 280.367188 114.671875 C 280.664062 114.226562 280.9375 113.765625 281.191406 113.292969 C 281.445312 112.820312 281.671875 112.335938 281.878906 111.839844 C 282.082031 111.34375 282.265625 110.839844 282.417969 110.328125 C 282.574219 109.8125 282.707031 109.292969 282.808594 108.769531 C 282.914062 108.242188 282.992188 107.710938 283.046875 107.179688 C 283.097656 106.644531 283.125 106.109375 283.125 105.574219 C 283.125 105.039062 283.097656 104.503906 283.046875 103.96875 C 282.992188 103.433594 282.914062 102.90625 282.808594 102.378906 C 282.707031 101.851562 282.574219 101.332031 282.417969 100.820312 C 282.265625 100.308594 282.082031 99.800781 281.878906 99.308594 C 281.671875 98.8125 281.445312 98.328125 281.191406 97.855469 C 280.9375 97.382812 280.664062 96.921875 280.367188 96.476562 C 280.066406 96.03125 279.75 95.601562 279.40625 95.183594 C 279.066406 94.769531 278.707031 94.375 278.328125 93.996094 C 277.949219 93.617188 277.550781 93.253906 277.136719 92.914062 C 276.722656 92.574219 276.292969 92.257812 275.847656 91.957031 C 275.402344 91.660156 274.941406 91.386719 274.46875 91.132812 C 273.996094 90.878906 273.511719 90.648438 273.015625 90.445312 C 272.519531 90.238281 272.015625 90.058594 271.503906 89.902344 C 270.988281 89.746094 270.46875 89.617188 269.945312 89.511719 C 269.417969 89.410156 268.890625 89.328125 268.355469 89.277344 C 267.820312 89.226562 267.285156 89.199219 266.75 89.199219 Z M 184.875 105.574219 C 139.730469 105.574219 103 142.300781 103 187.449219 C 103 232.59375 139.730469 269.324219 184.875 269.324219 C 230.019531 269.324219 266.75 232.59375 266.75 187.449219 C 266.75 142.300781 230.019531 105.574219 184.875 105.574219 Z M 184.875 138.324219 C 211.960938 138.324219 234 160.363281 234 187.449219 C 234 214.53125 211.960938 236.574219 184.875 236.574219 C 157.789062 236.574219 135.75 214.53125 135.75 187.449219 C 135.75 160.363281 157.789062 138.324219 184.875 138.324219 Z M 184.875 138.324219"/></g></svg>