<svg xmlns="http://www.w3.org/2000/svg" width="375" viewBox="0 0 375 375" height="375" version="1.0"><defs><clipPath id="a"><path d="M 19.613281 55 L 355.613281 55 L 355.613281 327.445312 L 19.613281 327.445312 Z M 19.613281 55"/></clipPath></defs><g clip-path="url(#a)"><path d="M 320.914062 122.871094 C 321.117188 125.828125 321.117188 128.785156 321.117188 131.761719 C 321.117188 222.628906 251.925781 327.425781 125.414062 327.425781 L 125.414062 327.371094 C 88.039062 327.429688 51.445312 316.730469 19.984375 296.546875 C 25.414062 297.195312 30.878906 297.527344 36.355469 297.539062 C 67.328125 297.566406 97.414062 287.175781 121.78125 268.042969 C 92.34375 267.484375 66.535156 248.300781 57.519531 220.285156 C 67.832031 222.273438 78.453125 221.867188 88.570312 219.097656 C 56.480469 212.613281 33.394531 184.425781 33.394531 151.691406 C 33.394531 151.390625 33.394531 151.109375 33.394531 150.820312 C 42.957031 156.140625 53.664062 159.097656 64.613281 159.425781 C 34.394531 139.242188 25.078125 99.046875 43.332031 67.613281 C 78.25 110.578125 129.773438 136.695312 185.082031 139.457031 C 179.539062 115.570312 187.113281 90.546875 204.984375 73.753906 C 232.691406 47.714844 276.257812 49.046875 302.300781 76.734375 C 317.703125 73.699219 332.46875 68.046875 345.980469 60.042969 C 340.84375 75.964844 330.101562 89.484375 315.746094 98.074219 C 329.378906 96.464844 342.699219 92.816406 355.246094 87.246094 C 346.007812 101.082031 334.371094 113.136719 320.914062 122.871094 Z M 320.914062 122.871094"/></g></svg>